<?xml version="1.0" encoding="UTF-8" standalone="no"?>
<!-- Created with Inkscape (http://www.inkscape.org/) -->

<svg
   width="92mm"
   height="52mm"
   viewBox="0 0 92 52"
   version="1.1"
   id="svg5"
   inkscape:version="1.1 (c68e22c387, 2021-05-23)"
   sodipodi:docname="logo.svg"
   xmlns:inkscape="http://www.inkscape.org/namespaces/inkscape"
   xmlns:sodipodi="http://sodipodi.sourceforge.net/DTD/sodipodi-0.dtd"
   xmlns:xlink="http://www.w3.org/1999/xlink"
   xmlns="http://www.w3.org/2000/svg"
   xmlns:svg="http://www.w3.org/2000/svg">
  <sodipodi:namedview
     id="namedview7"
     pagecolor="#ffffff"
     bordercolor="#666666"
     borderopacity="1.0"
     inkscape:pageshadow="2"
     inkscape:pageopacity="0.0"
     inkscape:pagecheckerboard="0"
     inkscape:document-units="mm"
     showgrid="false"
     width="92mm"
     inkscape:zoom="2.1450451"
     inkscape:cx="322.13776"
     inkscape:cy="230.53129"
     inkscape:window-width="1200"
     inkscape:window-height="1537"
     inkscape:window-x="1912"
     inkscape:window-y="-8"
     inkscape:window-maximized="1"
     inkscape:current-layer="layer1" />
  <defs
     id="defs2">
    <linearGradient
       inkscape:collect="always"
       id="linearGradient22866">
      <stop
         style="stop-color:#000000;stop-opacity:1;"
         offset="0"
         id="stop22862" />
      <stop
         style="stop-color:#000000;stop-opacity:0;"
         offset="1"
         id="stop22864" />
    </linearGradient>
    <linearGradient
       inkscape:collect="always"
       xlink:href="#linearGradient22866"
       id="linearGradient22868"
       x1="45.099468"
       y1="26.710313"
       x2="82.294972"
       y2="26.710313"
       gradientUnits="userSpaceOnUse" />
  </defs>
  <g
     inkscape:label="圖層 1"
     inkscape:groupmode="layer"
     id="layer1">
    <rect
       style="fill:#ff8080;fill-rule:evenodd;stroke-width:0.264583"
       id="rect204"
       width="92.756401"
       height="52.545517"
       x="-0.12334628"
       y="0"
       ry="2.9603109"
       inkscape:export-filename="D:\100_becare\050Databases_web\600_Modules\eric_signup\images\logo.png"
       inkscape:export-xdpi="25.190001"
       inkscape:export-ydpi="25.190001" />
    <g
       id="g86"
       transform="matrix(0.08878507,0,0,0.09820616,4.3086937,3.5608131)">
	<polygon
   style="fill:#c1e8e6"
   points="359.997,360 359.997,0 14.997,0 14.997,455 264.997,455 274.997,370 "
   id="polygon70" />

	<polygon
   style="fill:#98d9d5"
   points="264.997,455 359.997,360 264.997,360 "
   id="polygon72" />

	<polygon
   style="fill:#6da8d6"
   points="115.708,354.293 348.333,135.81 298.835,100.454 94.542,304.747 "
   id="polygon74" />

	<polygon
   style="fill:#185f8d"
   points="165.253,375.457 369.546,171.165 341.261,128.739 115.708,354.293 "
   id="polygon76" />

	<polygon
   style="fill:#274b6d"
   points="87.423,382.577 65.621,374.916 44.997,425.003 95.084,404.379 "
   id="polygon78" />

	<path
   style="fill:#ffcc75"
   d="m 165.253,375.458 c -1.681,-6.258 -5.065,-12.306 -10.129,-17.37 -9.101,-9.101 -21.373,-12.795 -32.345,-10.867 1.928,-10.972 -1.766,-23.244 -10.867,-32.345 -5.064,-5.064 -11.112,-8.448 -17.37,-10.129 l -0.048,0.048 -28.874,70.121 29.463,29.463 70.121,-28.874 z"
   id="path80" />

	<path
   style="fill:#f2484b"
   d="M 431.253,67.032 402.969,38.748 c -11.667,-11.667 -30.759,-11.667 -42.426,0 l -35.356,35.356 28.284,42.426 42.426,28.284 35.356,-35.356 c 11.667,-11.667 11.667,-30.759 0,-42.426 z"
   id="path82" />

	
		<rect
   x="328.733"
   y="72.635002"
   transform="matrix(0.7071,-0.7071,0.7071,0.7071,15.0245,281.5421)"
   style="fill:#f2ebd9"
   width="37.265999"
   height="100"
   id="rect84" />

</g>
    <text
       xml:space="preserve"
       style="font-style:normal;font-weight:normal;font-size:19.9676px;line-height:1.25;font-family:sans-serif;fill:url(#linearGradient22868);fill-opacity:1;stroke:#dc531b;stroke-width:0.999;stroke-opacity:1;stroke-miterlimit:4;stroke-dasharray:none;paint-order:stroke fill markers"
       x="43.900242"
       y="20.704433"
       id="text3823"><tspan
         sodipodi:role="line"
         style="font-style:normal;font-variant:normal;font-weight:bold;font-stretch:normal;font-size:19.9676px;font-family:'Microsoft JhengHei UI';-inkscape-font-specification:'Microsoft JhengHei UI, Bold';font-variant-ligatures:normal;font-variant-caps:normal;font-variant-numeric:normal;font-variant-east-asian:normal;fill:#fffeff;fill-opacity:1;stroke:#dc531b;stroke-width:0.999;stroke-opacity:1;stroke-miterlimit:4;stroke-dasharray:none;paint-order:stroke fill markers"
         x="43.900242"
         y="20.704433"
         id="tspan3825">活動</tspan><tspan
         sodipodi:role="line"
         style="font-style:normal;font-variant:normal;font-weight:bold;font-stretch:normal;font-size:19.9676px;font-family:'Microsoft JhengHei UI';-inkscape-font-specification:'Microsoft JhengHei UI, Bold';font-variant-ligatures:normal;font-variant-caps:normal;font-variant-numeric:normal;font-variant-east-asian:normal;fill:#fffeff;fill-opacity:1;stroke:#dc531b;stroke-width:0.999;stroke-opacity:1;stroke-miterlimit:4;stroke-dasharray:none;paint-order:stroke fill markers"
         x="43.900242"
         y="48.267132"
         id="tspan34998">報名</tspan></text>
  </g>
</svg>
